M48
;Layer_Color=9474304
;FILE_FORMAT=4:3
METRIC,LZ
;TYPE=PLATED
T01F00S00C0.711
T02F00S00C0.762
T03F00S00C0.800
T04F00S00C0.900
T05F00S00C1.200
T06F00S00C1.270
T07F00S00C1.300
%
T01
X0045085Y0003048
X0048768
X0048641Y0007747
Y0010414
X0045085
Y0007874
Y001397
X004869Y0014018
X0061849Y0014224
X0074422Y0014097
T02
X0006731Y0003048
Y0006938
Y0011938
X0013081Y0003048
X0019511Y0004572
X0024511
X00254Y0011684
X0025654Y0014097
X0019304
X001905Y0011684
X0052705Y0010541
Y0007747
X0059055
Y0010541
X005842Y0043688
X006342
X007001Y0043561
X007501
X008001
X005342Y0043688
X0042131Y0043307
X0037131
X0032131
X0024892Y0043561
X0019892
X0014892
T03
X0014224Y0006223
Y0008382
T04
X0029464Y0005334
Y0007874
Y0010414
Y0012954
X0037084
Y0010414
Y0007874
Y0005334
X0064643Y0006731
Y0008001
Y0009271
X0077216Y0008382
X0078486
X0079756
X004018Y0016221
Y0017491
Y0018761
X0015669Y001838
Y001711
Y001584
T05
X0055245Y0018415
X0060348
X0072494Y0017907
X0077597
X0025273Y0018288
X002017
X0028194Y0022075
Y0027178
T06
X0004318Y0017145
X0006858
X0009398
T07
X0058423Y0022442
X0063373Y0024892
X007011Y0024638
X007506Y0022188
X008001Y0024638
Y0034638
X007011
X0063373Y0034892
X0053473
Y0024892
X0041917Y0024765
X0036967Y0022315
X0032017Y0024765
X0024638Y0025273
X0019688Y0022823
X0014738Y0025273
Y0035273
X0024638
X0032017Y0034765
X0041917
M30
