G04*
G04 #@! TF.GenerationSoftware,Altium Limited,Altium Designer,23.10.1 (27)*
G04*
G04 Layer_Physical_Order=2*
G04 Layer_Color=16711680*
%FSLAX43Y43*%
%MOMM*%
G71*
G04*
G04 #@! TF.SameCoordinates,D6ED3C60-ED2A-43FF-ABD2-B4C8165299AB*
G04*
G04*
G04 #@! TF.FilePolarity,Positive*
G04*
G01*
G75*
%ADD10C,1.000*%
%ADD11C,0.700*%
%ADD12C,1.500*%
%ADD13C,1.397*%
%ADD14C,2.000*%
%ADD15R,2.000X2.000*%
%ADD16O,2.000X2.500*%
%ADD17O,2.000X1.000*%
%ADD18O,2.000X1.000*%
%ADD19C,2.300*%
G04:AMPARAMS|DCode=20|XSize=2.3mm|YSize=2.3mm|CornerRadius=0mm|HoleSize=0mm|Usage=FLASHONLY|Rotation=0.000|XOffset=0mm|YOffset=0mm|HoleType=Round|Shape=Octagon|*
%AMOCTAGOND20*
4,1,8,1.150,-0.575,1.150,0.575,0.575,1.150,-0.575,1.150,-1.150,0.575,-1.150,-0.575,-0.575,-1.150,0.575,-1.150,1.150,-0.575,0.0*
%
%ADD20OCTAGOND20*%

%ADD21O,2.500X2.000*%
%ADD22C,1.500*%
%ADD23R,1.500X1.500*%
%ADD24O,1.905X2.286*%
G04:AMPARAMS|DCode=25|XSize=2.2mm|YSize=1.3mm|CornerRadius=0.325mm|HoleSize=0mm|Usage=FLASHONLY|Rotation=0.000|XOffset=0mm|YOffset=0mm|HoleType=Round|Shape=RoundedRectangle|*
%AMROUNDEDRECTD25*
21,1,2.200,0.650,0,0,0.0*
21,1,1.550,1.300,0,0,0.0*
1,1,0.650,0.775,-0.325*
1,1,0.650,-0.775,-0.325*
1,1,0.650,-0.775,0.325*
1,1,0.650,0.775,0.325*
%
%ADD25ROUNDEDRECTD25*%
%ADD26R,2.000X2.000*%
%ADD27O,1.000X2.000*%
%ADD28O,1.000X2.000*%
%ADD29C,1.270*%
D10*
X66294Y6731D02*
X67310Y7747D01*
X50751Y45974D02*
X67310D01*
Y7747D02*
Y45974D01*
X83488D01*
X1905Y15773D02*
X3277Y17145D01*
X2491Y9467D02*
X5911D01*
X1905Y10053D02*
X2491Y9467D01*
X1905Y10053D02*
Y15773D01*
X3277Y17145D02*
X4318D01*
X6693Y6976D02*
Y8685D01*
X5911Y9467D02*
X6693Y8685D01*
Y6976D02*
X6731Y6938D01*
Y3048D02*
Y6938D01*
X62178Y20245D02*
X63373Y21440D01*
X62178Y20245D02*
X64706Y17716D01*
X60348Y18415D02*
X62178Y20245D01*
X50165Y14734D02*
Y45388D01*
X48690Y14018D02*
X48742Y14070D01*
X50165Y45388D02*
X50751Y45974D01*
X74370Y14149D02*
X74422Y14097D01*
X72494Y7165D02*
Y17907D01*
X48692Y3048D02*
X48768Y3124D01*
X55626D02*
X68453D01*
X72494Y7165D01*
X33523Y1058D02*
X35514Y3048D01*
X7832Y1058D02*
X33523D01*
X74422Y6318D02*
Y14097D01*
Y6318D02*
X75389Y5351D01*
X45137Y7822D02*
X45328D01*
X45403Y7747D01*
X45085Y7874D02*
X45137Y7822D01*
X77597Y10414D02*
Y17907D01*
X75389Y5351D02*
X78486D01*
X63373Y21440D02*
Y24892D01*
X84074Y10795D02*
Y45388D01*
X83488Y45974D02*
X84074Y45388D01*
X28194Y27178D02*
Y45515D01*
X7620Y44450D02*
X9271Y46101D01*
X27608D01*
X28194Y45515D01*
X35687Y12954D02*
X37084D01*
X32893Y6071D02*
Y10160D01*
X35687Y12954D01*
X37084D02*
X37180Y13050D01*
X48641Y10414D02*
X48714D01*
X52629Y7798D02*
X52705Y7874D01*
X52348Y7798D02*
X52629D01*
X52297Y7747D02*
X52348Y7798D01*
X61849Y13335D02*
Y14224D01*
X59055Y10541D02*
X61849Y13335D01*
X81661Y8382D02*
X84074Y10795D01*
X6858Y17145D02*
Y19861D01*
Y12065D02*
Y17145D01*
X18161Y8382D02*
X26416D01*
X9398Y17145D02*
X18161Y8382D01*
X26416D02*
X29464Y5334D01*
X15763Y8240D02*
X17145Y6858D01*
X24380Y4703D02*
Y6227D01*
X23749Y6858D02*
X24380Y6227D01*
X17145Y6858D02*
X23749D01*
X24380Y4703D02*
X24511Y4572D01*
X24130Y9779D02*
X27559D01*
X29464Y7874D01*
X19888Y14021D02*
X24130Y9779D01*
X19380Y14021D02*
X19888D01*
X19304Y14097D02*
X19380Y14021D01*
X42131Y34979D02*
Y43307D01*
X41917Y34765D02*
X42131Y34979D01*
X36967Y43143D02*
X37131Y43307D01*
X36967Y22315D02*
Y43143D01*
X32017Y34765D02*
X32131Y34879D01*
Y43307D01*
X24638Y22225D02*
Y25273D01*
X24788Y22075D02*
X28194D01*
X24638Y22225D02*
X24788Y22075D01*
X7444Y20447D02*
X9017D01*
X13624Y15840D01*
X6858Y19861D02*
X7444Y20447D01*
X18370Y16957D02*
Y17698D01*
Y16957D02*
X19198Y16129D01*
X17688Y18380D02*
X18370Y17698D01*
X23114Y16715D02*
Y20447D01*
X22528Y16129D02*
X23114Y16715D01*
X19198Y16129D02*
X22528D01*
X37435Y16988D02*
X37938Y17491D01*
X28545Y16988D02*
X37435D01*
X25273Y18288D02*
X25544D01*
X26047Y18791D01*
X39751D01*
X41917Y18930D02*
Y24765D01*
X14224Y8382D02*
X14366Y8240D01*
X10668Y11938D02*
X14224Y8382D01*
X30574Y3751D02*
X32893Y6071D01*
X39212Y13050D02*
X40180Y14018D01*
X37180Y13050D02*
X39212D01*
X55626Y3124D02*
Y18034D01*
X55245Y18415D02*
X55626Y18034D01*
X53473Y20187D02*
X55245Y18415D01*
X25654Y14097D02*
X28545Y16988D01*
X23114Y20447D02*
X24551Y21884D01*
X7620Y25273D02*
Y44450D01*
X25583Y11684D02*
X28194D01*
X29464Y10414D01*
X14366Y8240D02*
X15763D01*
X24511Y4572D02*
X26179D01*
X21438D02*
X23652Y2358D01*
X19511Y4572D02*
X21438D01*
X23652Y2358D02*
X32233D01*
X6731Y11938D02*
X6858Y12065D01*
X6731Y3048D02*
X6807Y2972D01*
Y2083D02*
Y2972D01*
Y2083D02*
X7832Y1058D01*
X13081Y3048D02*
X14224Y4191D01*
Y6223D01*
X48714Y10414D02*
X48841Y10541D01*
X70110Y20291D02*
Y24638D01*
Y20291D02*
X72494Y17907D01*
X80010Y20320D02*
Y24638D01*
X77597Y17907D02*
X80010Y20320D01*
X70010Y34738D02*
X70110Y34638D01*
X70010Y34738D02*
Y43561D01*
X53473Y34892D02*
Y43635D01*
X63373Y34892D02*
Y43641D01*
X58423Y22442D02*
Y43685D01*
X53473Y20187D02*
Y24892D01*
X14738Y23514D02*
Y25273D01*
X17780Y20472D02*
X20170Y18288D01*
X24892Y39675D02*
Y43561D01*
X24638Y39421D02*
X24892Y39675D01*
X24638Y35273D02*
Y39421D01*
X30607Y24765D02*
X32017D01*
X28194Y27178D02*
X30607Y24765D01*
X32233Y2358D02*
X35209Y5334D01*
X37084D01*
X26179Y4572D02*
X27000Y3751D01*
X30574D01*
X6731Y11938D02*
X10668D01*
X7620Y25273D02*
X14738D01*
X4318Y21971D02*
X7620Y25273D01*
X4318Y17145D02*
Y21971D01*
X14738Y23514D02*
X17780Y20472D01*
X19892Y33275D02*
Y43561D01*
X19688Y33071D02*
X19892Y33275D01*
X19688Y22823D02*
Y33071D01*
X14892Y39473D02*
Y43561D01*
X14738Y39319D02*
X14892Y39473D01*
X14738Y35273D02*
Y39319D01*
X75010Y32892D02*
Y43561D01*
Y32892D02*
X75060Y32842D01*
Y22188D02*
Y32842D01*
X80010Y34638D02*
Y43561D01*
X3414Y6334D02*
Y7667D01*
X2747Y7000D02*
X4080D01*
X3953Y11541D02*
Y12874D01*
D11*
X64643Y9271D02*
X64706Y9335D01*
Y17716D01*
X59055Y7747D02*
X59188Y7880D01*
X59681D01*
X59682Y7881D01*
X63811D01*
X63873Y7944D02*
X64586D01*
X63811Y7881D02*
X63873Y7944D01*
X64586D02*
X64643Y8001D01*
X77273Y8439D02*
Y10090D01*
X77597Y10414D01*
X77216Y8382D02*
X77273Y8439D01*
X64643Y6731D02*
X66294D01*
X78486Y5351D02*
Y8382D01*
X78486Y5351D02*
X78486Y5351D01*
X79756Y8382D02*
X81661D01*
X13624Y15840D02*
X15669D01*
X17220Y16480D02*
Y16550D01*
Y16480D02*
X17653Y16047D01*
X15726Y17053D02*
X16717D01*
X17220Y16550D01*
X17653Y12180D02*
Y16047D01*
X37938Y17491D02*
X40180D01*
X39751Y18791D02*
X41778D01*
X41917Y18930D01*
X40180Y14018D02*
Y16221D01*
X40180Y17491D02*
X40180Y17491D01*
X15669Y18380D02*
X17688D01*
X15669Y17110D02*
X15726Y17053D01*
X18964Y11770D02*
X19050Y11684D01*
X18063Y11770D02*
X18964D01*
X17653Y12180D02*
X18063Y11770D01*
D12*
X48742Y14070D02*
X49501D01*
X50165Y14734D01*
X35514Y3048D02*
X45085D01*
X40132Y13970D02*
X45085D01*
X48641Y7747D02*
X52297D01*
X37084Y7874D02*
X45085D01*
X37084Y10414D02*
X45085D01*
X48768Y3124D02*
X55626D01*
X48841Y10541D02*
X52705D01*
D13*
X59055D02*
D03*
X52705D02*
D03*
Y7747D02*
D03*
X59055D02*
D03*
X25400Y11684D02*
D03*
X19050D02*
D03*
X19304Y14097D02*
D03*
X25654D02*
D03*
X13081Y3048D02*
D03*
X6731D02*
D03*
D14*
X25273Y18288D02*
D03*
X75010Y43561D02*
D03*
X80010D02*
D03*
X70010D02*
D03*
X58420Y43688D02*
D03*
X63420D02*
D03*
X53420D02*
D03*
X37131Y43307D02*
D03*
X42131D02*
D03*
X32131D02*
D03*
X19892Y43561D02*
D03*
X24892D02*
D03*
X14892D02*
D03*
X60348Y18415D02*
D03*
X28194Y22075D02*
D03*
X77597Y17907D02*
D03*
D15*
X20170Y18288D02*
D03*
X55245Y18415D02*
D03*
X72494Y17907D02*
D03*
D16*
X24511Y4572D02*
D03*
X19511D02*
D03*
D17*
X15669Y15840D02*
D03*
Y17110D02*
D03*
X40180Y16221D02*
D03*
Y17491D02*
D03*
X64643Y6731D02*
D03*
Y8001D02*
D03*
D18*
X15669Y18380D02*
D03*
X40180Y18761D02*
D03*
X64643Y9271D02*
D03*
D19*
X32017Y34765D02*
D03*
X41917D02*
D03*
X36967Y22315D02*
D03*
X53473Y34892D02*
D03*
X63373D02*
D03*
X58423Y22442D02*
D03*
X14738Y35273D02*
D03*
X24638D02*
D03*
X19688Y22823D02*
D03*
X70110Y34638D02*
D03*
X80010D02*
D03*
X75060Y22188D02*
D03*
D20*
X32017Y24765D02*
D03*
X41917D02*
D03*
X53473Y24892D02*
D03*
X63373D02*
D03*
X14738Y25273D02*
D03*
X24638D02*
D03*
X70110Y24638D02*
D03*
X80010D02*
D03*
D21*
X6731Y11938D02*
D03*
Y6938D02*
D03*
D22*
X29464Y12954D02*
D03*
Y10414D02*
D03*
Y7874D02*
D03*
Y5334D02*
D03*
X37084Y12954D02*
D03*
Y10414D02*
D03*
Y7874D02*
D03*
D23*
Y5334D02*
D03*
D24*
X4318Y17145D02*
D03*
X6858D02*
D03*
X9398D02*
D03*
D25*
X14224Y8382D02*
D03*
Y6223D02*
D03*
D26*
X28194Y27178D02*
D03*
D27*
X79756Y8382D02*
D03*
X78486D02*
D03*
D28*
X77216D02*
D03*
D29*
X74422Y14097D02*
D03*
X48641Y7747D02*
D03*
X45085Y13970D02*
D03*
Y3048D02*
D03*
Y10414D02*
D03*
Y7874D02*
D03*
X61849Y14224D02*
D03*
X48690Y14018D02*
D03*
X48768Y3048D02*
D03*
X48641Y10414D02*
D03*
M02*
